<svg xmlns="http://www.w3.org/2000/svg" viewBox="0 0 32 32">
  <defs>
    <linearGradient id="bgGrad" x1="0%" y1="0%" x2="100%" y2="100%">
      <stop offset="0%" style="stop-color:#0ea5e9;stop-opacity:1" />
      <stop offset="100%" style="stop-color:#0284c7;stop-opacity:1" />
    </linearGradient>
  </defs>
  
  <!-- Background -->
  <rect width="32" height="32" rx="6" fill="url(#bgGrad)"/>
  
  <!-- Speech bubble -->
  <path d="M6,8 Q4,8 4,10 L4,18 Q4,20 6,20 L10,20 L12,24 L14,20 L26,20 Q28,20 28,18 L28,10 Q28,8 26,8 Z" 
        fill="white"/>
  
  <!-- Heart -->
  <path d="M16,11 C14.5,9 12,9.5 12,11.5 C12,13 16,16 16,18 C16,16 20,13 20,11.5 C20,9.5 17.5,9 16,11 Z" 
        fill="#0ea5e9"/>
</svg>

